<svg xmlns="http://www.w3.org/2000/svg" xmlns:xlink="http://www.w3.org/1999/xlink" viewBox="0 0 466.44 344.39"><defs><style>.a{fill:url(#a);}.b{fill:url(#b);}.c{fill:url(#c);}.d{fill:#020230;opacity:0.6;}.e{fill:url(#d);}.f{fill:url(#e);}.g{fill:url(#f);}.ab,.h{fill:#fff;}.i,.m{opacity:0.4;}.j,.m,.n{fill:#06033e;}.k{fill:url(#g);}.l{fill:url(#h);}.ab,.n,.p{opacity:0.5;}.o{fill:url(#i);}.q{fill:#e8975b;}.r{fill:#f8359e;}.s{fill:url(#j);}.t{fill:url(#k);}.u{fill:url(#l);}.v{fill:url(#m);}.w{fill:url(#n);}.x{fill:url(#o);}.y{fill:url(#p);}.z{fill:#0c0a78;}.aa{fill:url(#q);}</style><linearGradient id="a" x1="422.74" y1="272.78" x2="455.36" y2="272.78" gradientUnits="userSpaceOnUse"><stop offset="0" stop-color="#e39a65"/><stop offset="1" stop-color="#e95f8d"/></linearGradient><linearGradient id="b" x1="378.09" y1="228.09" x2="432.87" y2="228.09" xlink:href="#a"/><linearGradient id="c" x1="16.87" y1="246.44" x2="71.65" y2="246.44" xlink:href="#a"/><linearGradient id="d" x1="80.64" y1="242.93" x2="373" y2="242.93" xlink:href="#a"/><radialGradient id="e" cx="242.13" cy="26.48" r="223.3" gradientUnits="userSpaceOnUse"><stop offset="0" stop-color="#e39a65"/><stop offset="0.47" stop-color="#a92ffb"/><stop offset="0.59" stop-color="#891cfb"/><stop offset="0.74" stop-color="#6507fa"/><stop offset="0.8" stop-color="#0d0c6f"/></radialGradient><radialGradient id="f" cx="105.56" cy="205.8" r="244.17" gradientUnits="userSpaceOnUse"><stop offset="0" stop-color="#e39a65"/><stop offset="0.47" stop-color="#a92ffb"/><stop offset="0.57" stop-color="#891cfb"/><stop offset="0.68" stop-color="#6507fa"/><stop offset="0.74" stop-color="#0d0c6f"/></radialGradient><radialGradient id="g" cx="182.56" cy="73.05" r="223.34" gradientUnits="userSpaceOnUse"><stop offset="0" stop-color="#e39a65"/><stop offset="0.47" stop-color="#a92ffb"/><stop offset="0.59" stop-color="#891cfb"/><stop offset="0.73" stop-color="#6507fa"/><stop offset="1" stop-color="#3919bb"/></radialGradient><linearGradient id="h" x1="207.11" y1="131.68" x2="386.08" y2="131.68" gradientUnits="userSpaceOnUse"><stop offset="0" stop-color="#3919bb"/><stop offset="1" stop-color="#6507fa"/></linearGradient><radialGradient id="i" cx="101.03" cy="25.36" r="347.85" xlink:href="#g"/><linearGradient id="j" x1="85.1" y1="156.16" x2="161.87" y2="156.16" xlink:href="#a"/><radialGradient id="k" cx="91.9" cy="93.54" r="165.35" gradientUnits="userSpaceOnUse"><stop offset="0" stop-color="#e39a65"/><stop offset="0.15" stop-color="#a92ffb"/><stop offset="0.41" stop-color="#3919bb"/><stop offset="0.93" stop-color="#3919bb"/></radialGradient><linearGradient id="l" x1="94.83" y1="73.05" x2="154.14" y2="73.05" gradientUnits="userSpaceOnUse"><stop offset="0" stop-color="#e39a65"/><stop offset="0.25" stop-color="#a92ffb"/><stop offset="0.56" stop-color="#3919bb"/></linearGradient><linearGradient id="m" x1="100.39" y1="70.04" x2="148.57" y2="70.04" gradientUnits="userSpaceOnUse"><stop offset="0" stop-color="#4f1fec"/><stop offset="1" stop-color="#a92ffb"/></linearGradient><linearGradient id="n" x1="99.25" y1="70.04" x2="147.43" y2="70.04" xlink:href="#m"/><linearGradient id="o" x1="100.39" y1="63.69" x2="161.15" y2="63.69" gradientUnits="userSpaceOnUse"><stop offset="0" stop-color="#131060"/><stop offset="0.19" stop-color="#141062"/><stop offset="0.28" stop-color="#19106a"/><stop offset="0.36" stop-color="#221078"/><stop offset="0.42" stop-color="#2e0f8b"/><stop offset="0.48" stop-color="#3e0fa3"/><stop offset="0.54" stop-color="#510ec2"/><stop offset="0.58" stop-color="#680de5"/><stop offset="0.61" stop-color="#740df8"/><stop offset="0.62" stop-color="#7a14f0"/><stop offset="0.68" stop-color="#9b3cc3"/><stop offset="0.75" stop-color="#b75d9d"/><stop offset="0.81" stop-color="#cc7680"/><stop offset="0.88" stop-color="#dc886c"/><stop offset="0.94" stop-color="#e5935f"/><stop offset="1" stop-color="#e8975b"/></linearGradient><radialGradient id="p" cx="87.43" cy="56.27" r="108.16" gradientUnits="userSpaceOnUse"><stop offset="0" stop-color="#e39a65"/><stop offset="0.25" stop-color="#a92ffb"/><stop offset="0.74" stop-color="#3919bb"/></radialGradient><linearGradient id="q" x1="120.67" y1="83.3" x2="129.07" y2="83.3" xlink:href="#o"/></defs><title>Artboard 95</title><path class="a" d="M439.05,282.37a7,7,0,0,1-3.48-.93l-11.74-6.77a2.17,2.17,0,0,1,0-3.77l11.74-6.77a7,7,0,0,1,7,0l11.74,6.77a2.17,2.17,0,0,1,0,3.77l-11.74,6.77A7,7,0,0,1,439.05,282.37Zm0-17.31a5.05,5.05,0,0,0-2.55.68l-11.74,6.77a.32.32,0,0,0-.15.27.32.32,0,0,0,.15.28l11.74,6.77h0a5.1,5.1,0,0,0,5.1,0l11.74-6.77a.32.32,0,0,0,.15-.28.32.32,0,0,0-.15-.27l-11.74-6.77A5.05,5.05,0,0,0,439.05,265.06Z"/><path class="b" d="M405.48,243.92a11.26,11.26,0,0,1-5.65-1.51l-20.2-11.66a3.07,3.07,0,0,1,0-5.32l20.2-11.66a11.36,11.36,0,0,1,11.31,0l20.2,11.66a3.08,3.08,0,0,1,0,5.32l-20.2,11.66A11.3,11.3,0,0,1,405.48,243.92Zm-4.72-3.12a9.49,9.49,0,0,0,9.45,0l20.2-11.66a1.22,1.22,0,0,0,0-2.1l-20.2-11.66a9.49,9.49,0,0,0-9.45,0L380.56,227a1.21,1.21,0,0,0,0,2.1Z"/><path class="c" d="M44.26,262.27a11.3,11.3,0,0,1-5.66-1.51L18.41,249.1a3.06,3.06,0,0,1,0-5.31L38.6,232.12a11.36,11.36,0,0,1,11.31,0l20.2,11.67a3.06,3.06,0,0,1,0,5.31L49.92,260.76A11.3,11.3,0,0,1,44.26,262.27Zm0-29.8a9.4,9.4,0,0,0-4.73,1.27L19.34,245.4a1.17,1.17,0,0,0-.61,1,1.19,1.19,0,0,0,.61,1.05l20.19,11.66h0a9.51,9.51,0,0,0,9.46,0l20.19-11.66a1.19,1.19,0,0,0,.61-1.05,1.17,1.17,0,0,0-.61-1L49,233.74A9.34,9.34,0,0,0,44.26,232.47Z"/><path class="d" d="M248.81,313.15,104.38,229.76c-2.11-1.21-1.85-3.34.58-4.74l92.7-53.52c2.43-1.4,6.11-1.55,8.21-.34l144.44,83.39c2.1,1.21,1.84,3.34-.59,4.74L257,312.81C254.59,314.21,250.91,314.36,248.81,313.15Z"/><path class="e" d="M252.11,328.2a9.29,9.29,0,0,1-4.54-1.06h0L82.73,232a3.71,3.71,0,0,1-2.09-3.16c0-1.44,1-2.85,2.76-3.86l112.37-65.84c3.08-1.78,7.61-2,10.31-.39l164.84,95.17a3.7,3.7,0,0,1,2.08,3.16c0,1.44-1,2.85-2.76,3.86L257.88,326.75A11.85,11.85,0,0,1,252.11,328.2ZM201.56,159.53a10,10,0,0,0-4.86,1.19L84.34,226.55c-1.15.67-1.83,1.51-1.83,2.26a2,2,0,0,0,1.15,1.55L248.5,325.53h0c2.11,1.21,6,1,8.44-.39l112.37-65.83c1.15-.67,1.83-1.51,1.83-2.26A2,2,0,0,0,370,255.5L205.15,160.33A7.38,7.38,0,0,0,201.56,159.53Z"/><path class="f" d="M388.67,114.75,244.81,31.69a3.71,3.71,0,0,0-2.93-.42h0l-2.66.93.94.22a4.65,4.65,0,0,0-.88,1.65L206.72,139.7a6.39,6.39,0,0,0,2.64,7.11l143.86,83.06a4.29,4.29,0,0,0,1.06.43l-.35.78,2.54-.9h0a4.09,4.09,0,0,0,2.32-2.69l32.53-105.63A6.36,6.36,0,0,0,388.67,114.75Z"/><path class="g" d="M348.07,233.81l.05.06L206,151.83c-2.09-1.21-5.75-1.05-8.16.34l-91.81,53L103,204l.86,4.29h0a2.61,2.61,0,0,0,1.38,1.72l143.41,82.8c2.09,1.2,5.75,1.05,8.16-.34l92-53.14a3.67,3.67,0,0,0,1.95-2.27h0l.88-4.18Z"/><path class="h" d="M248.81,289,104.38,205.65c-2.11-1.21-1.85-3.34.58-4.74l92.7-53.52c2.43-1.4,6.11-1.55,8.21-.34l144.44,83.39c2.1,1.21,1.84,3.34-.59,4.74L257,288.7C254.59,290.1,250.91,290.25,248.81,289Z"/><path class="h" d="M349.72,234.06,257,287.57c-2.43,1.41-6.11,1.56-8.21.34L104.38,204.53a2.74,2.74,0,0,1-1.32-1.5,2.24,2.24,0,0,0,1.32,2.62L248.81,289c2.1,1.21,5.78,1.06,8.21-.34l92.7-53.52c1.6-.93,2.24-2.16,1.9-3.24A3.87,3.87,0,0,1,349.72,234.06Z"/><g class="i"><path class="j" d="M173.27,192.12l-4.88-2.82c-.39-.22-.34-.62.11-.88l5.76-3.32a1.67,1.67,0,0,1,1.52-.06l4.88,2.81c.39.23.34.62-.11.88l-5.76,3.33A1.67,1.67,0,0,1,173.27,192.12Z"/><path class="j" d="M180.8,196.47l-4.88-2.82c-.39-.22-.34-.62.11-.88l5.76-3.32a1.71,1.71,0,0,1,1.52-.07l4.88,2.82c.39.23.34.62-.11.88l-5.76,3.32A1.71,1.71,0,0,1,180.8,196.47Z"/><path class="j" d="M188.33,200.81,183.45,198c-.39-.23-.34-.62.11-.88l5.76-3.33a1.7,1.7,0,0,1,1.52-.06l4.88,2.82c.39.22.34.62-.11.88l-5.76,3.32A1.67,1.67,0,0,1,188.33,200.81Z"/><path class="j" d="M198.74,197.22l-4.87-2.81c-.4-.23-.35-.62.11-.88l4.83-2.79a1.71,1.71,0,0,1,1.52-.07l4.88,2.82c.39.23.34.62-.11.88l-4.83,2.79A1.69,1.69,0,0,1,198.74,197.22Z"/><path class="j" d="M206.27,201.57l-4.87-2.81c-.4-.23-.35-.62.11-.89l4.83-2.78a1.67,1.67,0,0,1,1.52-.07l4.88,2.82c.39.22.34.62-.11.88l-4.83,2.79A1.69,1.69,0,0,1,206.27,201.57Z"/><path class="j" d="M213.8,205.92l-4.87-2.82c-.4-.22-.35-.62.11-.88l4.83-2.79a1.67,1.67,0,0,1,1.52-.06l4.88,2.81c.39.23.34.63-.11.89l-4.83,2.79A1.69,1.69,0,0,1,213.8,205.92Z"/><path class="j" d="M221.33,210.27l-4.87-2.82c-.39-.22-.35-.62.11-.88l4.83-2.79a1.69,1.69,0,0,1,1.53-.06l4.87,2.81c.39.23.34.62-.11.88l-4.83,2.79A1.73,1.73,0,0,1,221.33,210.27Z"/><path class="j" d="M228.86,214.61,224,211.8c-.39-.23-.35-.62.11-.88l4.83-2.79a1.73,1.73,0,0,1,1.53-.07l4.87,2.82c.39.23.34.62-.11.88l-4.83,2.79A1.69,1.69,0,0,1,228.86,214.61Z"/><path class="j" d="M236.39,219l-4.87-2.81c-.39-.23-.35-.62.11-.88l4.83-2.79a1.69,1.69,0,0,1,1.53-.07l4.87,2.82c.39.22.34.62-.11.88l-4.83,2.79A1.69,1.69,0,0,1,236.39,219Z"/><path class="j" d="M243.92,223.31l-4.87-2.82c-.39-.22-.34-.62.11-.88l4.83-2.79a1.69,1.69,0,0,1,1.53-.06l4.87,2.82c.39.22.34.62-.11.88l-4.83,2.79A1.69,1.69,0,0,1,243.92,223.31Z"/><path class="j" d="M251.45,227.66l-4.87-2.82c-.39-.22-.34-.62.11-.88l4.83-2.79a1.69,1.69,0,0,1,1.53-.06l4.87,2.81c.39.23.34.62-.11.88L253,227.59A1.69,1.69,0,0,1,251.45,227.66Z"/><path class="j" d="M259,232l-4.87-2.82c-.39-.23-.34-.62.11-.88l4.83-2.79a1.69,1.69,0,0,1,1.53-.06l4.87,2.81c.39.23.35.62-.11.88l-4.83,2.79A1.73,1.73,0,0,1,259,232Z"/><path class="j" d="M266.51,236.35l-4.87-2.81c-.39-.23-.34-.62.11-.88l4.83-2.79a1.73,1.73,0,0,1,1.53-.07l4.87,2.82c.39.22.35.62-.11.88L268,236.29A1.69,1.69,0,0,1,266.51,236.35Z"/><path class="j" d="M209.84,195.17,205,192.35c-.39-.23-.34-.62.11-.88l4.83-2.79a1.69,1.69,0,0,1,1.53-.06l4.88,2.81c.39.23.34.62-.11.88l-4.84,2.79A1.71,1.71,0,0,1,209.84,195.17Z"/><path class="j" d="M202.19,190.75l-4.87-2.81c-.39-.23-.34-.62.11-.88l4.83-2.79a1.73,1.73,0,0,1,1.53-.07l4.87,2.82c.39.22.35.62-.11.88l-4.83,2.79A1.69,1.69,0,0,1,202.19,190.75Z"/><path class="j" d="M194.54,186.33,184,180.27c-.39-.23-.34-.62.11-.88L189,176.6a1.69,1.69,0,0,1,1.53-.06L201,182.6c.39.23.34.62-.11.88l-4.83,2.79A1.69,1.69,0,0,1,194.54,186.33Z"/><path class="j" d="M199.89,181,191.37,176c-.39-.23-.34-.62.11-.88l4.83-2.79a1.73,1.73,0,0,1,1.53-.07l8.52,4.92c.39.23.34.63-.11.89l-4.83,2.79A1.69,1.69,0,0,1,199.89,181Z"/><path class="j" d="M217.37,199.51l-4.88-2.81c-.39-.23-.34-.62.11-.88l4.83-2.79A1.73,1.73,0,0,1,219,193l4.88,2.82c.39.23.34.62-.11.88l-4.83,2.79A1.69,1.69,0,0,1,217.37,199.51Z"/><path class="j" d="M224.9,203.86,220,201.05c-.39-.23-.34-.62.11-.89l4.83-2.79a1.72,1.72,0,0,1,1.53-.06l4.88,2.82c.39.22.34.62-.11.88l-4.83,2.79A1.69,1.69,0,0,1,224.9,203.86Z"/><path class="j" d="M232.43,208.21l-4.88-2.82c-.39-.22-.34-.62.11-.88l4.83-2.79a1.69,1.69,0,0,1,1.53-.06l4.88,2.81c.39.23.34.63-.11.89L234,208.15A1.73,1.73,0,0,1,232.43,208.21Z"/><path class="j" d="M240,212.56l-4.88-2.82c-.39-.22-.34-.62.11-.88l4.83-2.79a1.69,1.69,0,0,1,1.53-.06l4.88,2.81c.39.23.34.62-.11.88l-4.83,2.79A1.73,1.73,0,0,1,240,212.56Z"/><path class="j" d="M247.49,216.9l-4.88-2.81c-.39-.23-.34-.62.11-.88l4.83-2.79a1.73,1.73,0,0,1,1.53-.07l4.88,2.82c.39.23.34.62-.11.88L249,216.84A1.69,1.69,0,0,1,247.49,216.9Z"/><path class="j" d="M255,221.25l-4.88-2.81c-.39-.23-.34-.62.11-.89l4.83-2.78a1.7,1.7,0,0,1,1.53-.07l4.88,2.82c.39.22.34.62-.11.88l-4.83,2.79A1.69,1.69,0,0,1,255,221.25Z"/><path class="j" d="M262.55,225.6l-4.88-2.82c-.39-.22-.34-.62.11-.88l4.83-2.79a1.69,1.69,0,0,1,1.53-.06l4.88,2.81c.39.23.34.63-.11.89l-4.83,2.79A1.69,1.69,0,0,1,262.55,225.6Z"/><path class="j" d="M270.08,230l-4.88-2.82c-.39-.22-.34-.62.11-.88l4.83-2.79a1.69,1.69,0,0,1,1.53-.06l4.88,2.81c.39.23.34.62-.11.88l-4.83,2.79A1.73,1.73,0,0,1,270.08,230Z"/><path class="j" d="M277.61,234.29l-4.88-2.81c-.39-.23-.34-.62.11-.88l4.83-2.79a1.73,1.73,0,0,1,1.53-.07l4.88,2.82c.39.23.34.62-.11.88l-4.83,2.79A1.69,1.69,0,0,1,277.61,234.29Z"/><path class="j" d="M291,242l-10.64-6.14c-.39-.23-.34-.62.11-.88l4.83-2.79a1.69,1.69,0,0,1,1.53-.06l10.64,6.14c.39.22.34.62-.11.88L292.52,242A1.67,1.67,0,0,1,291,242Z"/><path class="j" d="M305.66,233.56l-9-5.19c-.39-.22-.35-.62.11-.88l4.83-2.79a1.69,1.69,0,0,1,1.53-.06l9,5.18c.39.23.34.63-.11.89l-4.84,2.79A1.67,1.67,0,0,1,305.66,233.56Z"/><path class="j" d="M230.55,198.66l-4.87-2.81c-.39-.23-.34-.62.11-.88l4.83-2.79a1.73,1.73,0,0,1,1.53-.07l4.87,2.82c.39.22.35.62-.11.88l-4.83,2.79A1.69,1.69,0,0,1,230.55,198.66Z"/><path class="j" d="M222.84,194.21,218,191.39c-.39-.22-.34-.62.11-.88l4.83-2.79a1.69,1.69,0,0,1,1.53-.06l4.88,2.81c.39.23.34.62-.11.88l-4.84,2.79A1.71,1.71,0,0,1,222.84,194.21Z"/><path class="j" d="M215.12,189.75l-4.88-2.81c-.39-.23-.34-.62.11-.89l4.83-2.79a1.73,1.73,0,0,1,1.53-.06l4.88,2.82c.39.22.34.62-.11.88l-4.83,2.79A1.69,1.69,0,0,1,215.12,189.75Z"/><path class="j" d="M207.4,185.3l-4.87-2.82c-.4-.23-.35-.62.11-.88l4.83-2.79a1.67,1.67,0,0,1,1.52-.06l4.88,2.81c.39.23.34.62-.11.88l-4.83,2.79A1.73,1.73,0,0,1,207.4,185.3Z"/><path class="j" d="M238.09,203l-4.88-2.81c-.39-.23-.34-.63.11-.89l4.83-2.79a1.69,1.69,0,0,1,1.53-.06l4.87,2.82c.4.22.35.62-.11.88L239.61,203A1.67,1.67,0,0,1,238.09,203Z"/><path class="j" d="M245.62,207.36l-4.88-2.82c-.39-.22-.34-.62.11-.88l4.83-2.79a1.69,1.69,0,0,1,1.53-.06l4.87,2.81c.4.23.35.62-.11.89l-4.83,2.78A1.67,1.67,0,0,1,245.62,207.36Z"/><path class="j" d="M253.15,211.71l-4.88-2.82c-.39-.23-.34-.62.11-.88l4.83-2.79a1.69,1.69,0,0,1,1.53-.06l4.87,2.81c.4.23.35.62-.11.88l-4.83,2.79A1.71,1.71,0,0,1,253.15,211.71Z"/><path class="j" d="M260.68,216.05l-4.88-2.81c-.39-.23-.34-.62.11-.88l4.83-2.79a1.73,1.73,0,0,1,1.53-.07l4.87,2.82c.4.22.35.62-.11.88L262.2,216A1.67,1.67,0,0,1,260.68,216.05Z"/><path class="j" d="M268.21,220.4l-4.88-2.81c-.39-.23-.34-.63.11-.89l4.83-2.79a1.72,1.72,0,0,1,1.53-.06l4.87,2.82c.4.22.35.62-.1.88l-4.84,2.79A1.67,1.67,0,0,1,268.21,220.4Z"/><path class="j" d="M275.74,224.75l-4.88-2.82c-.39-.22-.34-.62.11-.88l4.83-2.79a1.69,1.69,0,0,1,1.53-.06L282.2,221c.4.23.35.62-.1.89l-4.84,2.79A1.7,1.7,0,0,1,275.74,224.75Z"/><path class="j" d="M283.27,229.1l-4.88-2.82c-.39-.23-.34-.62.11-.88l4.83-2.79a1.69,1.69,0,0,1,1.53-.06l4.88,2.81c.39.23.34.62-.11.88L284.79,229A1.71,1.71,0,0,1,283.27,229.1Z"/><path class="j" d="M290.8,233.44l-4.88-2.81c-.39-.23-.34-.62.11-.88l4.83-2.79a1.73,1.73,0,0,1,1.53-.07l4.88,2.82c.39.23.34.62-.11.88l-4.84,2.79A1.67,1.67,0,0,1,290.8,233.44Z"/><path class="j" d="M298.33,237.79,293.45,235c-.39-.23-.34-.62.11-.89l4.83-2.79a1.72,1.72,0,0,1,1.53-.06l4.88,2.82c.39.22.34.62-.11.88l-4.84,2.79A1.67,1.67,0,0,1,298.33,237.79Z"/><path class="j" d="M226.59,187.91l-4.88-2.82c-.39-.22-.34-.62.11-.88l4.83-2.79a1.69,1.69,0,0,1,1.53-.06l4.88,2.81c.39.23.34.63-.11.89l-4.83,2.79A1.69,1.69,0,0,1,226.59,187.91Z"/><path class="j" d="M219.1,183.58l-4.88-2.81c-.39-.23-.34-.62.11-.88l4.83-2.79a1.73,1.73,0,0,1,1.53-.07l4.88,2.82c.39.22.34.62-.11.88l-4.84,2.79A1.67,1.67,0,0,1,219.1,183.58Z"/><path class="j" d="M211.6,179.26l-4.87-2.82c-.39-.22-.34-.62.11-.88l4.83-2.79a1.69,1.69,0,0,1,1.53-.06l4.87,2.81c.39.23.35.62-.11.88l-4.83,2.79A1.69,1.69,0,0,1,211.6,179.26Z"/><path class="j" d="M204.11,174.93l-4.87-2.81c-.4-.23-.35-.62.1-.89l4.84-2.78a1.67,1.67,0,0,1,1.52-.07l4.88,2.82c.39.22.34.62-.11.88l-4.83,2.79A1.69,1.69,0,0,1,204.11,174.93Z"/><path class="j" d="M211.82,170.48l-4.88-2.81c-.39-.23-.34-.62.11-.88l1.6-.93a1.67,1.67,0,0,1,1.52-.06l4.88,2.82c.39.22.34.62-.11.88l-1.6.92A1.67,1.67,0,0,1,211.82,170.48Z"/><path class="j" d="M221.59,176.13l-4.87-2.82c-.39-.22-.34-.62.11-.88l1.59-.92a1.69,1.69,0,0,1,1.53-.06l4.88,2.81c.39.23.34.62-.11.88l-1.6.93A1.72,1.72,0,0,1,221.59,176.13Z"/><path class="j" d="M229.06,180.44l-4.88-2.82c-.39-.22-.34-.62.11-.88l1.6-.92a1.71,1.71,0,0,1,1.52-.07l4.88,2.82c.39.23.34.62-.11.88l-1.6.92A1.71,1.71,0,0,1,229.06,180.44Z"/><path class="j" d="M236.52,184.74l-4.88-2.81c-.39-.23-.34-.62.11-.88l1.6-.92a1.69,1.69,0,0,1,1.53-.07l4.87,2.82c.39.22.34.62-.11.88l-1.6.92A1.67,1.67,0,0,1,236.52,184.74Z"/><path class="j" d="M244,189.05l-4.88-2.81c-.39-.23-.34-.62.11-.88l1.6-.93a1.69,1.69,0,0,1,1.53-.06l4.87,2.82c.39.22.35.62-.11.88l-1.59.92A1.69,1.69,0,0,1,244,189.05Z"/><path class="j" d="M285.64,213.1l-4.88-2.81c-.39-.23-.34-.62.11-.88l1.6-.93a1.67,1.67,0,0,1,1.52-.06l4.88,2.82c.39.22.34.62-.11.88l-1.6.92A1.67,1.67,0,0,1,285.64,213.1Z"/><path class="j" d="M293.1,217.41l-4.88-2.81c-.39-.23-.34-.63.11-.89l1.6-.92a1.69,1.69,0,0,1,1.53-.06l4.87,2.81c.39.23.34.62-.11.89l-1.6.92A1.67,1.67,0,0,1,293.1,217.41Z"/><path class="j" d="M300.56,221.72l-4.88-2.82c-.39-.22-.34-.62.11-.88l1.6-.92a1.69,1.69,0,0,1,1.53-.06l4.87,2.81c.39.23.35.62-.11.88l-1.59.93A1.73,1.73,0,0,1,300.56,221.72Z"/><path class="j" d="M308,226l-4.88-2.82c-.39-.22-.34-.62.11-.88l1.6-.92a1.73,1.73,0,0,1,1.53-.07l4.87,2.82c.4.23.35.62-.1.88l-1.6.92A1.73,1.73,0,0,1,308,226Z"/><path class="j" d="M234.12,192.26l-4.88-2.82c-.39-.22-.34-.62.11-.88l4.83-2.79a1.69,1.69,0,0,1,1.53-.06l4.88,2.81c.39.23.34.62-.11.88l-4.83,2.79A1.73,1.73,0,0,1,234.12,192.26Z"/><path class="j" d="M241.65,196.6l-4.88-2.81c-.39-.23-.34-.62.11-.88l4.84-2.79a1.71,1.71,0,0,1,1.52-.07l4.88,2.82c.39.23.34.62-.11.88l-4.83,2.79A1.69,1.69,0,0,1,241.65,196.6Z"/><path class="j" d="M249.18,201l-4.88-2.81c-.39-.23-.34-.62.11-.88l4.84-2.79a1.67,1.67,0,0,1,1.52-.07l4.88,2.82c.39.22.34.62-.11.88l-4.83,2.79A1.69,1.69,0,0,1,249.18,201Z"/><path class="j" d="M256.71,205.3l-4.88-2.82c-.39-.22-.34-.62.11-.88l4.84-2.79a1.67,1.67,0,0,1,1.52-.06l4.88,2.82c.39.22.34.62-.11.88l-4.83,2.79A1.69,1.69,0,0,1,256.71,205.3Z"/><path class="j" d="M264.24,209.65l-4.88-2.82c-.39-.22-.34-.62.11-.88l4.84-2.79a1.67,1.67,0,0,1,1.52-.06l4.88,2.81c.39.23.34.62-.11.88l-4.83,2.79A1.7,1.7,0,0,1,264.24,209.65Z"/><path class="j" d="M271.77,214l-4.87-2.82c-.4-.23-.35-.62.1-.88l4.84-2.79a1.67,1.67,0,0,1,1.52-.06l4.88,2.81c.39.23.34.62-.11.88l-4.83,2.79A1.73,1.73,0,0,1,271.77,214Z"/><path class="j" d="M279.3,218.34l-4.87-2.81c-.4-.23-.35-.62.1-.88l4.84-2.79a1.71,1.71,0,0,1,1.52-.07l4.88,2.82c.39.22.34.62-.11.88l-4.83,2.79A1.69,1.69,0,0,1,279.3,218.34Z"/><path class="j" d="M286.83,222.69,282,219.88c-.4-.23-.35-.63.11-.89l4.83-2.79a1.67,1.67,0,0,1,1.52-.06L293.3,219c.39.22.34.62-.11.88l-4.83,2.79A1.69,1.69,0,0,1,286.83,222.69Z"/><path class="j" d="M294.36,227l-4.87-2.82c-.4-.22-.35-.62.11-.88l4.83-2.79a1.67,1.67,0,0,1,1.52-.06l4.88,2.81c.39.23.34.62-.11.89L295.89,227A1.7,1.7,0,0,1,294.36,227Z"/><path class="j" d="M191.07,192.79l-14.36-8.29c-.39-.22-.35-.62.11-.88l4.83-2.79a1.69,1.69,0,0,1,1.53-.06l14.36,8.29c.39.23.34.62-.11.88l-4.83,2.79A1.69,1.69,0,0,1,191.07,192.79Z"/><path class="j" d="M283.58,246.21l-14.36-8.3c-.39-.22-.34-.62.11-.88l4.83-2.79a1.69,1.69,0,0,1,1.53-.06l14.36,8.29c.39.23.34.62-.11.88l-4.83,2.79A1.73,1.73,0,0,1,283.58,246.21Z"/><path class="j" d="M253.46,238.42l-4.87-2.81c-.39-.23-.34-.62.11-.89l5.75-3.32a1.69,1.69,0,0,1,1.53-.06l4.88,2.81c.39.23.34.62-.11.89L255,238.36A1.69,1.69,0,0,1,253.46,238.42Z"/><path class="j" d="M198.78,206.85l-7.8-4.5c-.39-.23-.34-.62.11-.88l5.76-3.33a1.67,1.67,0,0,1,1.52-.06l7.8,4.5c.39.23.34.62-.11.88l-5.75,3.33A1.69,1.69,0,0,1,198.78,206.85Z"/><path class="j" d="M246.21,234.23l-7.8-4.5c-.39-.23-.34-.62.11-.88l5.76-3.32a1.67,1.67,0,0,1,1.52-.07l7.8,4.5c.39.23.34.63-.11.89l-5.75,3.32A1.69,1.69,0,0,1,246.21,234.23Z"/><path class="j" d="M209.64,213.12l-7.79-4.5c-.4-.23-.35-.62.11-.88l5.75-3.33a1.72,1.72,0,0,1,1.53-.06l7.8,4.5c.39.23.34.62-.11.89l-5.76,3.32A1.69,1.69,0,0,1,209.64,213.12Z"/><path class="j" d="M209.29,204.38,243.2,224c.42.24.42.63,0,.88l-5.87,3.39a1.72,1.72,0,0,1-1.53,0l-33.9-19.58Z"/><path class="j" d="M274.51,246.3l5.43,3.14c.32.19.28.51-.09.72l-2.35,1.36a1.35,1.35,0,0,1-1.25,0l-5.44-3.13c-.32-.19-.28-.51.09-.72l2.36-1.36A1.39,1.39,0,0,1,274.51,246.3Z"/><path class="j" d="M266.92,241.92l5.43,3.14c.32.18.28.51-.09.72l-2.35,1.36a1.41,1.41,0,0,1-1.26.05l-5.43-3.13c-.32-.19-.28-.51.09-.73l2.36-1.36A1.42,1.42,0,0,1,266.92,241.92Z"/><path class="j" d="M259.39,237.57l5.43,3.14c.32.18.28.51-.09.72l-2.36,1.36a1.35,1.35,0,0,1-1.25.05l-5.43-3.13c-.32-.19-.28-.51.09-.73l2.36-1.35A1.39,1.39,0,0,1,259.39,237.57Z"/><path class="j" d="M271.08,239.52l5.43,3.14c.32.18.28.5-.09.72l-2.36,1.36a1.38,1.38,0,0,1-1.25,0l-5.43-3.14c-.32-.18-.28-.5.09-.72l2.35-1.36A1.41,1.41,0,0,1,271.08,239.52Z"/></g><g class="i"><path class="j" d="M173.27,192.12l-4.88-2.82c-.39-.22-.34-.62.11-.88l5.76-3.32a1.67,1.67,0,0,1,1.52-.06l4.88,2.81c.39.23.34.62-.11.88l-5.76,3.33A1.67,1.67,0,0,1,173.27,192.12Z"/><path class="j" d="M180.8,196.47l-4.88-2.82c-.39-.22-.34-.62.11-.88l5.76-3.32a1.71,1.71,0,0,1,1.52-.07l4.88,2.82c.39.23.34.62-.11.88l-5.76,3.32A1.71,1.71,0,0,1,180.8,196.47Z"/><path class="j" d="M188.33,200.81,183.45,198c-.39-.23-.34-.62.11-.88l5.76-3.33a1.7,1.7,0,0,1,1.52-.06l4.88,2.82c.39.22.34.62-.11.88l-5.76,3.32A1.67,1.67,0,0,1,188.33,200.81Z"/><path class="j" d="M198.74,197.22l-4.87-2.81c-.4-.23-.35-.62.11-.88l4.83-2.79a1.71,1.71,0,0,1,1.52-.07l4.88,2.82c.39.23.34.62-.11.88l-4.83,2.79A1.69,1.69,0,0,1,198.74,197.22Z"/><path class="j" d="M206.27,201.57l-4.87-2.81c-.4-.23-.35-.62.11-.89l4.83-2.78a1.67,1.67,0,0,1,1.52-.07l4.88,2.82c.39.22.34.62-.11.88l-4.83,2.79A1.69,1.69,0,0,1,206.27,201.57Z"/><path class="j" d="M213.8,205.92l-4.87-2.82c-.4-.22-.35-.62.11-.88l4.83-2.79a1.67,1.67,0,0,1,1.52-.06l4.88,2.81c.39.23.34.63-.11.89l-4.83,2.79A1.69,1.69,0,0,1,213.8,205.92Z"/><path class="j" d="M221.33,210.27l-4.87-2.82c-.39-.22-.35-.62.11-.88l4.83-2.79a1.69,1.69,0,0,1,1.53-.06l4.87,2.81c.39.23.34.62-.11.88l-4.83,2.79A1.73,1.73,0,0,1,221.33,210.27Z"/><path class="j" d="M228.86,214.61,224,211.8c-.39-.23-.35-.62.11-.88l4.83-2.79a1.73,1.73,0,0,1,1.53-.07l4.87,2.82c.39.23.34.62-.11.88l-4.83,2.79A1.69,1.69,0,0,1,228.86,214.61Z"/><path class="j" d="M236.39,219l-4.87-2.81c-.39-.23-.35-.62.11-.88l4.83-2.79a1.69,1.69,0,0,1,1.53-.07l4.87,2.82c.39.22.34.62-.11.88l-4.83,2.79A1.69,1.69,0,0,1,236.39,219Z"/><path class="j" d="M243.92,223.31l-4.87-2.82c-.39-.22-.34-.62.11-.88l4.83-2.79a1.69,1.69,0,0,1,1.53-.06l4.87,2.82c.39.22.34.62-.11.88l-4.83,2.79A1.69,1.69,0,0,1,243.92,223.31Z"/><path class="j" d="M251.45,227.66l-4.87-2.82c-.39-.22-.34-.62.11-.88l4.83-2.79a1.69,1.69,0,0,1,1.53-.06l4.87,2.81c.39.23.34.62-.11.88L253,227.59A1.69,1.69,0,0,1,251.45,227.66Z"/><path class="j" d="M259,232l-4.87-2.82c-.39-.23-.34-.62.11-.88l4.83-2.79a1.69,1.69,0,0,1,1.53-.06l4.87,2.81c.39.23.35.62-.11.88l-4.83,2.79A1.73,1.73,0,0,1,259,232Z"/><path class="j" d="M266.51,236.35l-4.87-2.81c-.39-.23-.34-.62.11-.88l4.83-2.79a1.73,1.73,0,0,1,1.53-.07l4.87,2.82c.39.22.35.62-.11.88L268,236.29A1.69,1.69,0,0,1,266.51,236.35Z"/><path class="j" d="M209.84,195.17,205,192.35c-.39-.23-.34-.62.11-.88l4.83-2.79a1.69,1.69,0,0,1,1.53-.06l4.88,2.81c.39.23.34.62-.11.88l-4.84,2.79A1.71,1.71,0,0,1,209.84,195.17Z"/><path class="j" d="M202.19,190.75l-4.87-2.81c-.39-.23-.34-.62.11-.88l4.83-2.79a1.73,1.73,0,0,1,1.53-.07l4.87,2.82c.39.22.35.62-.11.88l-4.83,2.79A1.69,1.69,0,0,1,202.19,190.75Z"/><path class="j" d="M194.54,186.33,184,180.27c-.39-.23-.34-.62.11-.88L189,176.6a1.69,1.69,0,0,1,1.53-.06L201,182.6c.39.23.34.62-.11.88l-4.83,2.79A1.69,1.69,0,0,1,194.54,186.33Z"/><path class="j" d="M199.89,181,191.37,176c-.39-.23-.34-.62.11-.88l4.83-2.79a1.73,1.73,0,0,1,1.53-.07l8.52,4.92c.39.23.34.63-.11.89l-4.83,2.79A1.69,1.69,0,0,1,199.89,181Z"/><path class="j" d="M217.37,199.51l-4.88-2.81c-.39-.23-.34-.62.11-.88l4.83-2.79A1.73,1.73,0,0,1,219,193l4.88,2.82c.39.23.34.62-.11.88l-4.83,2.79A1.69,1.69,0,0,1,217.37,199.51Z"/><path class="j" d="M224.9,203.86,220,201.05c-.39-.23-.34-.62.11-.89l4.83-2.79a1.72,1.72,0,0,1,1.53-.06l4.88,2.82c.39.22.34.62-.11.88l-4.83,2.79A1.69,1.69,0,0,1,224.9,203.86Z"/><path class="j" d="M232.43,208.21l-4.88-2.82c-.39-.22-.34-.62.11-.88l4.83-2.79a1.69,1.69,0,0,1,1.53-.06l4.88,2.81c.39.23.34.63-.11.89L234,208.15A1.73,1.73,0,0,1,232.43,208.21Z"/><path class="j" d="M240,212.56l-4.88-2.82c-.39-.22-.34-.62.11-.88l4.83-2.79a1.69,1.69,0,0,1,1.53-.06l4.88,2.81c.39.23.34.62-.11.88l-4.83,2.79A1.73,1.73,0,0,1,240,212.56Z"/><path class="j" d="M247.49,216.9l-4.88-2.81c-.39-.23-.34-.62.11-.88l4.83-2.79a1.73,1.73,0,0,1,1.53-.07l4.88,2.82c.39.23.34.62-.11.88L249,216.84A1.69,1.69,0,0,1,247.49,216.9Z"/><path class="j" d="M255,221.25l-4.88-2.81c-.39-.23-.34-.62.11-.89l4.83-2.78a1.7,1.7,0,0,1,1.53-.07l4.88,2.82c.39.22.34.62-.11.88l-4.83,2.79A1.69,1.69,0,0,1,255,221.25Z"/><path class="j" d="M262.55,225.6l-4.88-2.82c-.39-.22-.34-.62.11-.88l4.83-2.79a1.69,1.69,0,0,1,1.53-.06l4.88,2.81c.39.23.34.63-.11.89l-4.83,2.79A1.69,1.69,0,0,1,262.55,225.6Z"/><path class="j" d="M270.08,230l-4.88-2.82c-.39-.22-.34-.62.11-.88l4.83-2.79a1.69,1.69,0,0,1,1.53-.06l4.88,2.81c.39.23.34.62-.11.88l-4.83,2.79A1.73,1.73,0,0,1,270.08,230Z"/><path class="j" d="M277.61,234.29l-4.88-2.81c-.39-.23-.34-.62.11-.88l4.83-2.79a1.73,1.73,0,0,1,1.53-.07l4.88,2.82c.39.23.34.62-.11.88l-4.83,2.79A1.69,1.69,0,0,1,277.61,234.29Z"/><path class="j" d="M291,242l-10.64-6.14c-.39-.23-.34-.62.11-.88l4.83-2.79a1.69,1.69,0,0,1,1.53-.06l10.64,6.14c.39.22.34.62-.11.88L292.52,242A1.67,1.67,0,0,1,291,242Z"/><path class="j" d="M305.66,233.56l-9-5.19c-.39-.22-.35-.62.11-.88l4.83-2.79a1.69,1.69,0,0,1,1.53-.06l9,5.18c.39.23.34.63-.11.89l-4.84,2.79A1.67,1.67,0,0,1,305.66,233.56Z"/><path class="j" d="M230.55,198.66l-4.87-2.81c-.39-.23-.34-.62.11-.88l4.83-2.79a1.73,1.73,0,0,1,1.53-.07l4.87,2.82c.39.22.35.62-.11.88l-4.83,2.79A1.69,1.69,0,0,1,230.55,198.66Z"/><path class="j" d="M222.84,194.21,218,191.39c-.39-.22-.34-.62.11-.88l4.83-2.79a1.69,1.69,0,0,1,1.53-.06l4.88,2.81c.39.23.34.62-.11.88l-4.84,2.79A1.71,1.71,0,0,1,222.84,194.21Z"/><path class="j" d="M215.12,189.75l-4.88-2.81c-.39-.23-.34-.62.11-.89l4.83-2.79a1.73,1.73,0,0,1,1.53-.06l4.88,2.82c.39.22.34.62-.11.88l-4.83,2.79A1.69,1.69,0,0,1,215.12,189.75Z"/><path class="j" d="M207.4,185.3l-4.87-2.82c-.4-.23-.35-.62.11-.88l4.83-2.79a1.67,1.67,0,0,1,1.52-.06l4.88,2.81c.39.23.34.62-.11.88l-4.83,2.79A1.73,1.73,0,0,1,207.4,185.3Z"/><path class="j" d="M238.09,203l-4.88-2.81c-.39-.23-.34-.63.11-.89l4.83-2.79a1.69,1.69,0,0,1,1.53-.06l4.87,2.82c.4.22.35.62-.11.88L239.61,203A1.67,1.67,0,0,1,238.09,203Z"/><path class="j" d="M245.62,207.36l-4.88-2.82c-.39-.22-.34-.62.11-.88l4.83-2.79a1.69,1.69,0,0,1,1.53-.06l4.87,2.81c.4.23.35.62-.11.89l-4.83,2.78A1.67,1.67,0,0,1,245.62,207.36Z"/><path class="j" d="M253.15,211.71l-4.88-2.82c-.39-.23-.34-.62.11-.88l4.83-2.79a1.69,1.69,0,0,1,1.53-.06l4.87,2.81c.4.23.35.62-.11.88l-4.83,2.79A1.71,1.71,0,0,1,253.15,211.71Z"/><path class="j" d="M260.68,216.05l-4.88-2.81c-.39-.23-.34-.62.11-.88l4.83-2.79a1.73,1.73,0,0,1,1.53-.07l4.87,2.82c.4.22.35.62-.11.88L262.2,216A1.67,1.67,0,0,1,260.68,216.05Z"/><path class="j" d="M268.21,220.4l-4.88-2.81c-.39-.23-.34-.63.11-.89l4.83-2.79a1.72,1.72,0,0,1,1.53-.06l4.87,2.82c.4.22.35.62-.1.88l-4.84,2.79A1.67,1.67,0,0,1,268.21,220.4Z"/><path class="j" d="M275.74,224.75l-4.88-2.82c-.39-.22-.34-.62.11-.88l4.83-2.79a1.69,1.69,0,0,1,1.53-.06L282.2,221c.4.23.35.62-.1.89l-4.84,2.79A1.7,1.7,0,0,1,275.74,224.75Z"/><path class="j" d="M283.27,229.1l-4.88-2.82c-.39-.23-.34-.62.11-.88l4.83-2.79a1.69,1.69,0,0,1,1.53-.06l4.88,2.81c.39.23.34.62-.11.88L284.79,229A1.71,1.71,0,0,1,283.27,229.1Z"/><path class="j" d="M290.8,233.44l-4.88-2.81c-.39-.23-.34-.62.11-.88l4.83-2.79a1.73,1.73,0,0,1,1.53-.07l4.88,2.82c.39.23.34.62-.11.88l-4.84,2.79A1.67,1.67,0,0,1,290.8,233.44Z"/><path class="j" d="M298.33,237.79,293.45,235c-.39-.23-.34-.62.11-.89l4.83-2.79a1.72,1.72,0,0,1,1.53-.06l4.88,2.82c.39.22.34.62-.11.88l-4.84,2.79A1.67,1.67,0,0,1,298.33,237.79Z"/><path class="j" d="M226.59,187.91l-4.88-2.82c-.39-.22-.34-.62.11-.88l4.83-2.79a1.69,1.69,0,0,1,1.53-.06l4.88,2.81c.39.23.34.63-.11.89l-4.83,2.79A1.69,1.69,0,0,1,226.59,187.91Z"/><path class="j" d="M219.1,183.58l-4.88-2.81c-.39-.23-.34-.62.11-.88l4.83-2.79a1.73,1.73,0,0,1,1.53-.07l4.88,2.82c.39.22.34.62-.11.88l-4.84,2.79A1.67,1.67,0,0,1,219.1,183.58Z"/><path class="j" d="M211.6,179.26l-4.87-2.82c-.39-.22-.34-.62.11-.88l4.83-2.79a1.69,1.69,0,0,1,1.53-.06l4.87,2.81c.39.23.35.62-.11.88l-4.83,2.79A1.69,1.69,0,0,1,211.6,179.26Z"/><path class="j" d="M204.11,174.93l-4.87-2.81c-.4-.23-.35-.62.1-.89l4.84-2.78a1.67,1.67,0,0,1,1.52-.07l4.88,2.82c.39.22.34.62-.11.88l-4.83,2.79A1.69,1.69,0,0,1,204.11,174.93Z"/><path class="j" d="M211.82,170.48l-4.88-2.81c-.39-.23-.34-.62.11-.88l1.6-.93a1.67,1.67,0,0,1,1.52-.06l4.88,2.82c.39.22.34.62-.11.88l-1.6.92A1.67,1.67,0,0,1,211.82,170.48Z"/><path class="j" d="M221.59,176.13l-4.87-2.82c-.39-.22-.34-.62.11-.88l1.59-.92a1.69,1.69,0,0,1,1.53-.06l4.88,2.81c.39.23.34.62-.11.88l-1.6.93A1.72,1.72,0,0,1,221.59,176.13Z"/><path class="j" d="M229.06,180.44l-4.88-2.82c-.39-.22-.34-.62.11-.88l1.6-.92a1.71,1.71,0,0,1,1.52-.07l4.88,2.82c.39.23.34.62-.11.88l-1.6.92A1.71,1.71,0,0,1,229.06,180.44Z"/><path class="j" d="M236.52,184.74l-4.88-2.81c-.39-.23-.34-.62.11-.88l1.6-.92a1.69,1.69,0,0,1,1.53-.07l4.87,2.82c.39.22.34.62-.11.88l-1.6.92A1.67,1.67,0,0,1,236.52,184.74Z"/><path class="j" d="M244,189.05l-4.88-2.81c-.39-.23-.34-.62.11-.88l1.6-.93a1.69,1.69,0,0,1,1.53-.06l4.87,2.82c.39.22.35.62-.11.88l-1.59.92A1.69,1.69,0,0,1,244,189.05Z"/><path class="j" d="M285.64,213.1l-4.88-2.81c-.39-.23-.34-.62.11-.88l1.6-.93a1.67,1.67,0,0,1,1.52-.06l4.88,2.82c.39.22.34.62-.11.88l-1.6.92A1.67,1.67,0,0,1,285.64,213.1Z"/><path class="j" d="M293.1,217.41l-4.88-2.81c-.39-.23-.34-.63.11-.89l1.6-.92a1.69,1.69,0,0,1,1.53-.06l4.87,2.81c.39.23.34.62-.11.89l-1.6.92A1.67,1.67,0,0,1,293.1,217.41Z"/><path class="j" d="M300.56,221.72l-4.88-2.82c-.39-.22-.34-.62.11-.88l1.6-.92a1.69,1.69,0,0,1,1.53-.06l4.87,2.81c.39.23.35.62-.11.88l-1.59.93A1.73,1.73,0,0,1,300.56,221.72Z"/><path class="j" d="M308,226l-4.88-2.82c-.39-.22-.34-.62.11-.88l1.6-.92a1.73,1.73,0,0,1,1.53-.07l4.87,2.82c.4.23.35.62-.1.88l-1.6.92A1.73,1.73,0,0,1,308,226Z"/><path class="j" d="M234.12,192.26l-4.88-2.82c-.39-.22-.34-.62.11-.88l4.83-2.79a1.69,1.69,0,0,1,1.53-.06l4.88,2.81c.39.23.34.62-.11.88l-4.83,2.79A1.73,1.73,0,0,1,234.12,192.26Z"/><path class="j" d="M241.65,196.6l-4.88-2.81c-.39-.23-.34-.62.11-.88l4.84-2.79a1.71,1.71,0,0,1,1.52-.07l4.88,2.82c.39.23.34.62-.11.88l-4.83,2.79A1.69,1.69,0,0,1,241.65,196.6Z"/><path class="j" d="M249.18,201l-4.88-2.81c-.39-.23-.34-.62.11-.88l4.84-2.79a1.67,1.67,0,0,1,1.52-.07l4.88,2.82c.39.22.34.62-.11.88l-4.83,2.79A1.69,1.69,0,0,1,249.18,201Z"/><path class="j" d="M256.71,205.3l-4.88-2.82c-.39-.22-.34-.62.11-.88l4.84-2.79a1.67,1.67,0,0,1,1.52-.06l4.88,2.82c.39.22.34.62-.11.88l-4.83,2.79A1.69,1.69,0,0,1,256.71,205.3Z"/><path class="j" d="M264.24,209.65l-4.88-2.82c-.39-.22-.34-.62.11-.88l4.84-2.79a1.67,1.67,0,0,1,1.52-.06l4.88,2.81c.39.23.34.62-.11.88l-4.83,2.79A1.7,1.7,0,0,1,264.24,209.65Z"/><path class="j" d="M271.77,214l-4.87-2.82c-.4-.23-.35-.62.1-.88l4.84-2.79a1.67,1.67,0,0,1,1.52-.06l4.88,2.81c.39.23.34.62-.11.88l-4.83,2.79A1.73,1.73,0,0,1,271.77,214Z"/><path class="j" d="M279.3,218.34l-4.87-2.81c-.4-.23-.35-.62.1-.88l4.84-2.79a1.71,1.71,0,0,1,1.52-.07l4.88,2.82c.39.22.34.62-.11.88l-4.83,2.79A1.69,1.69,0,0,1,279.3,218.34Z"/><path class="j" d="M286.83,222.69,282,219.88c-.4-.23-.35-.63.11-.89l4.83-2.79a1.67,1.67,0,0,1,1.52-.06L293.3,219c.39.22.34.62-.11.88l-4.83,2.79A1.69,1.69,0,0,1,286.83,222.69Z"/><path class="j" d="M294.36,227l-4.87-2.82c-.4-.22-.35-.62.11-.88l4.83-2.79a1.67,1.67,0,0,1,1.52-.06l4.88,2.81c.39.23.34.62-.11.89L295.89,227A1.7,1.7,0,0,1,294.36,227Z"/><path class="j" d="M191.07,192.79l-14.36-8.29c-.39-.22-.35-.62.11-.88l4.83-2.79a1.69,1.69,0,0,1,1.53-.06l14.36,8.29c.39.23.34.62-.11.88l-4.83,2.79A1.69,1.69,0,0,1,191.07,192.79Z"/><path class="j" d="M283.58,246.21l-14.36-8.3c-.39-.22-.34-.62.11-.88l4.83-2.79a1.69,1.69,0,0,1,1.53-.06l14.36,8.29c.39.23.34.62-.11.88l-4.83,2.79A1.73,1.73,0,0,1,283.58,246.21Z"/><path class="j" d="M253.46,238.42l-4.87-2.81c-.39-.23-.34-.62.11-.89l5.75-3.32a1.69,1.69,0,0,1,1.53-.06l4.88,2.81c.39.23.34.62-.11.89L255,238.36A1.69,1.69,0,0,1,253.46,238.42Z"/><path class="j" d="M198.78,206.85l-7.8-4.5c-.39-.23-.34-.62.11-.88l5.76-3.33a1.67,1.67,0,0,1,1.52-.06l7.8,4.5c.39.23.34.62-.11.88l-5.75,3.33A1.69,1.69,0,0,1,198.78,206.85Z"/><path class="j" d="M246.21,234.23l-7.8-4.5c-.39-.23-.34-.62.11-.88l5.76-3.32a1.67,1.67,0,0,1,1.52-.07l7.8,4.5c.39.23.34.63-.11.89l-5.75,3.32A1.69,1.69,0,0,1,246.21,234.23Z"/><path class="j" d="M209.64,213.12l-7.79-4.5c-.4-.23-.35-.62.11-.88l5.75-3.33a1.72,1.72,0,0,1,1.53-.06l7.8,4.5c.39.23.34.62-.11.89l-5.76,3.32A1.69,1.69,0,0,1,209.64,213.12Z"/><path class="j" d="M209.29,204.38,243.2,224c.42.24.42.63,0,.88l-5.87,3.39a1.72,1.72,0,0,1-1.53,0l-33.9-19.58Z"/><path class="j" d="M274.51,246.3l5.43,3.14c.32.19.28.51-.09.72l-2.35,1.36a1.35,1.35,0,0,1-1.25,0l-5.44-3.13c-.32-.19-.28-.51.09-.72l2.36-1.36A1.39,1.39,0,0,1,274.51,246.3Z"/><path class="j" d="M266.92,241.92l5.43,3.14c.32.18.28.51-.09.72l-2.35,1.36a1.41,1.41,0,0,1-1.26.05l-5.43-3.13c-.32-.19-.28-.51.09-.73l2.36-1.36A1.42,1.42,0,0,1,266.92,241.92Z"/><path class="j" d="M259.39,237.57l5.43,3.14c.32.18.28.51-.09.72l-2.36,1.36a1.35,1.35,0,0,1-1.25.05l-5.43-3.13c-.32-.19-.28-.51.09-.73l2.36-1.35A1.39,1.39,0,0,1,259.39,237.57Z"/><path class="j" d="M271.08,239.52l5.43,3.14c.32.18.28.5-.09.72l-2.36,1.36a1.38,1.38,0,0,1-1.25,0l-5.43-3.14c-.32-.18-.28-.5.09-.72l2.35-1.36A1.41,1.41,0,0,1,271.08,239.52Z"/></g><path class="k" d="M350.77,230.72,206.91,147.67a6.39,6.39,0,0,1-2.64-7.11L236.81,34.93c.8-2.62,3.29-3.69,5.55-2.38l143.86,83.06a6.36,6.36,0,0,1,2.64,7.11L356.33,228.35C355.52,231,353,232,350.77,230.72Z"/><path class="l" d="M349.42,227,209.88,146.4a6.1,6.1,0,0,1-2.53-6.81l31.11-101c.77-2.51,3.15-3.52,5.31-2.27L383.31,117a6.1,6.1,0,0,1,2.53,6.81l-31.11,101C354,227.26,351.58,228.28,349.42,227Z"/><path class="m" d="M349.42,227,209.88,146.4a6.1,6.1,0,0,1-2.53-6.81l31.11-101c.77-2.51,3.15-3.52,5.31-2.27L383.31,117a6.1,6.1,0,0,1,2.53,6.81l-31.11,101C354,227.26,351.58,228.28,349.42,227Z"/><path class="m" d="M349.42,227,209.88,146.4a6.1,6.1,0,0,1-2.53-6.81l31.11-101c.77-2.51,3.15-3.52,5.31-2.27L383.31,117a6.1,6.1,0,0,1,2.53,6.81l-31.11,101C354,227.26,351.58,228.28,349.42,227Z"/><path class="n" d="M341.92,196.17l-94.46-54.54a4.18,4.18,0,0,1-1.73-4.67L267.09,67.6A2.43,2.43,0,0,1,270.74,66l94.46,54.54a4.19,4.19,0,0,1,1.73,4.67L345.57,194.6A2.44,2.44,0,0,1,341.92,196.17Z"/><path class="o" d="M329.16,197.84,234.7,143.3a4.18,4.18,0,0,1-1.74-4.66l21.37-69.36A2.42,2.42,0,0,1,258,67.72l94.46,54.53a4.2,4.2,0,0,1,1.74,4.67L332.8,196.28A2.42,2.42,0,0,1,329.16,197.84Z"/><g class="p"><path class="j" d="M329.16,197.84,234.7,143.3a4.18,4.18,0,0,1-1.74-4.66l21.37-69.36A2.42,2.42,0,0,1,258,67.72l94.46,54.53a4.2,4.2,0,0,1,1.74,4.67L332.8,196.28A2.42,2.42,0,0,1,329.16,197.84Z"/></g><path class="h" d="M352.43,122.25,258,67.72a2.32,2.32,0,0,0-2.65.09,2.41,2.41,0,0,1,1.36.35l94.46,54.53a4.19,4.19,0,0,1,1.73,4.67l-21.36,69.36a2.88,2.88,0,0,1-1,1.47,2.49,2.49,0,0,0,2.28-1.91l21.36-69.36A4.18,4.18,0,0,0,352.43,122.25Z"/><path class="m" d="M210,254.48a7.1,7.1,0,0,1-3.5-.82h0l-37.85-21.85a2.74,2.74,0,0,1-1.55-2.33,3.58,3.58,0,0,1,2.09-2.9l19.48-11.24a8.69,8.69,0,0,1,7.95-.31l37.85,21.85a2.74,2.74,0,0,1,1.55,2.33A3.57,3.57,0,0,1,234,242.1l-19.48,11.25A9.12,9.12,0,0,1,210,254.48Zm-16.86-39.17a8.11,8.11,0,0,0-3.93,1l-19.48,11.25c-1,.57-1.54,1.28-1.54,1.95a1.72,1.72,0,0,0,1,1.38l37.85,21.85a7.75,7.75,0,0,0,6.86-.31l19.48-11.24c1-.57,1.54-1.28,1.54-1.95a1.72,1.72,0,0,0-1-1.38L196.1,216A6,6,0,0,0,193.16,215.31Z"/><path class="h" d="M281,104.1l-5.84-3.37a1.53,1.53,0,0,1-.65-1.68h0a.87.87,0,0,1,1.32-.54l5.83,3.37a1.5,1.5,0,0,1,.65,1.68h0A.86.86,0,0,1,281,104.1Z"/><path class="h" d="M294.89,112.14l-8.61-5a1.53,1.53,0,0,1-.65-1.68h0a.86.86,0,0,1,1.31-.54l8.62,5a1.51,1.51,0,0,1,.64,1.68h0A.87.87,0,0,1,294.89,112.14Z"/><path class="h" d="M269.2,130.1l-5.84-3.37a1.53,1.53,0,0,1-.65-1.68h0a.87.87,0,0,1,1.32-.54l5.84,3.37a1.53,1.53,0,0,1,.65,1.68h0A.87.87,0,0,1,269.2,130.1Z"/><path class="h" d="M281.6,137.26l-8.61-5a1.53,1.53,0,0,1-.65-1.68h0a.87.87,0,0,1,1.32-.54l8.61,5a1.53,1.53,0,0,1,.65,1.68h0A.87.87,0,0,1,281.6,137.26Z"/><path class="h" d="M263.49,99.47l-3.65-2.11a1.52,1.52,0,0,1-.65-1.67h0a.86.86,0,0,1,1.31-.55l3.65,2.11a1.52,1.52,0,0,1,.65,1.67h0A.86.86,0,0,1,263.49,99.47Z"/><path class="h" d="M274.46,111.27l-11.14-6.43a1.53,1.53,0,0,1-.65-1.68h0a.87.87,0,0,1,1.31-.55l11.15,6.44a1.53,1.53,0,0,1,.65,1.68h0A.87.87,0,0,1,274.46,111.27Z"/><path class="h" d="M264.18,116.27l-3.64-2.1a1.51,1.51,0,0,1-.65-1.68h0a.86.86,0,0,1,1.31-.55l3.65,2.11a1.53,1.53,0,0,1,.65,1.68h0A.87.87,0,0,1,264.18,116.27Z"/><path class="h" d="M283,149l-9.75-5.62a1.52,1.52,0,0,1-.64-1.68h0a.86.86,0,0,1,1.31-.55l9.74,5.63a1.53,1.53,0,0,1,.65,1.68h0A.86.86,0,0,1,283,149Z"/><path class="h" d="M260.1,124.84l-2.35-1.35a1.53,1.53,0,0,1-.65-1.68h0a.87.87,0,0,1,1.32-.54l2.34,1.35a1.53,1.53,0,0,1,.65,1.68h0A.86.86,0,0,1,260.1,124.84Z"/><path class="h" d="M257.88,134.5,255,132.82a1.53,1.53,0,0,1-.65-1.68h0a.88.88,0,0,1,1.32-.55l2.9,1.68a1.51,1.51,0,0,1,.65,1.68h0A.86.86,0,0,1,257.88,134.5Z"/><path class="h" d="M269.19,141l-7.66-4.43a1.5,1.5,0,0,1-.65-1.68h0a.86.86,0,0,1,1.31-.54l7.67,4.42a1.54,1.54,0,0,1,.65,1.68h0A.87.87,0,0,1,269.19,141Z"/><path class="h" d="M259.09,140.67l-5.51-3.19a1.53,1.53,0,0,1-.65-1.68h0a.86.86,0,0,1,1.31-.54l5.52,3.18a1.53,1.53,0,0,1,.65,1.68h0A.88.88,0,0,1,259.09,140.67Z"/><path class="h" d="M291.31,153.82l-3.54-2a1.53,1.53,0,0,1-.65-1.68h0a.86.86,0,0,1,1.31-.55l3.54,2a1.53,1.53,0,0,1,.65,1.68h0A.86.86,0,0,1,291.31,153.82Z"/><path class="h" d="M277.75,124.11,268,118.48a1.53,1.53,0,0,1-.65-1.68h0a.86.86,0,0,1,1.31-.54l9.75,5.62a1.53,1.53,0,0,1,.65,1.68h0A.87.87,0,0,1,277.75,124.11Z"/><path class="q" d="M278.91,119.31l-17-9.81a1.51,1.51,0,0,1-.65-1.68h0a.86.86,0,0,1,1.31-.54l17,9.8a1.5,1.5,0,0,1,.65,1.68h0A.86.86,0,0,1,278.91,119.31Z"/><path class="q" d="M268.89,124.46l-9.75-5.63a1.51,1.51,0,0,1-.64-1.68h0a.87.87,0,0,1,1.31-.55l9.74,5.63a1.53,1.53,0,0,1,.65,1.68h0A.87.87,0,0,1,268.89,124.46Z"/><path class="q" d="M285.14,128.37l-3.54-2a1.51,1.51,0,0,1-.64-1.68h0a.87.87,0,0,1,1.31-.55l3.54,2.05a1.53,1.53,0,0,1,.65,1.68h0A.87.87,0,0,1,285.14,128.37Z"/><path class="q" d="M321.16,127.3l-21-12.1a1.54,1.54,0,0,1-.65-1.68h0a.87.87,0,0,1,1.32-.55l21,12.1a1.54,1.54,0,0,1,.65,1.68h0A.86.86,0,0,1,321.16,127.3Z"/><path class="r" d="M268.08,134.92l-11.72-6.76a1.54,1.54,0,0,1-.65-1.68h0a.87.87,0,0,1,1.32-.55l11.71,6.76a1.54,1.54,0,0,1,.65,1.68h0A.86.86,0,0,1,268.08,134.92Z"/><path class="r" d="M269.84,97.67l-8.61-5a1.53,1.53,0,0,1-.65-1.68h0a.86.86,0,0,1,1.31-.54l8.62,5a1.51,1.51,0,0,1,.64,1.68h0A.86.86,0,0,1,269.84,97.67Z"/><path class="q" d="M257.29,145.09l-10-5.76a1.52,1.52,0,0,1-.65-1.67h0a.86.86,0,0,1,1.31-.55l10,5.76a1.51,1.51,0,0,1,.64,1.68h0A.86.86,0,0,1,257.29,145.09Z"/><path class="h" d="M323.51,116.52l-4.27-2.47a1.09,1.09,0,0,1-.47-1.22h0a.63.63,0,0,1,1-.4l4.26,2.46a1.12,1.12,0,0,1,.48,1.23h0A.63.63,0,0,1,323.51,116.52Z"/><path class="h" d="M331.65,121.22l-4.27-2.47a1.1,1.1,0,0,1-.47-1.22h0a.63.63,0,0,1,1-.4l4.27,2.46a1.12,1.12,0,0,1,.47,1.23h0A.63.63,0,0,1,331.65,121.22Z"/><path class="h" d="M339.79,125.92l-4.27-2.47a1.11,1.11,0,0,1-.47-1.22h0a.63.63,0,0,1,1-.4l4.27,2.46a1.12,1.12,0,0,1,.47,1.23h0A.63.63,0,0,1,339.79,125.92Z"/><path class="r" d="M343.8,128.23l-.13-.07a1.12,1.12,0,0,1-.48-1.23h0a.63.63,0,0,1,1-.4l.13.08a1.1,1.1,0,0,1,.48,1.22h0A.63.63,0,0,1,343.8,128.23Z"/><path class="s" d="M123.48,178.19a15.63,15.63,0,0,1-7.81-2.09h0L87.08,159.59a4,4,0,0,1,0-6.86l28.59-16.51a15.69,15.69,0,0,1,15.63,0l28.59,16.51a4,4,0,0,1,0,6.86L131.3,176.1A15.67,15.67,0,0,1,123.48,178.19Zm-6.88-3.7a13.82,13.82,0,0,0,13.77,0L159,158a2.09,2.09,0,0,0,0-3.63l-28.59-16.51a13.79,13.79,0,0,0-13.77,0L88,154.34A2.1,2.1,0,0,0,88,158Z"/><ellipse class="d" cx="123.34" cy="156.55" rx="19.64" ry="11.34"/><path class="t" d="M152.45,75.73H96.51l5.2,60.57h0c0,3.36,2.23,6.73,6.67,9.3,8.89,5.13,23.31,5.13,32.2,0,4.45-2.57,6.67-5.94,6.67-9.3Z"/><path class="m" d="M152.45,75.73H96.51l.86,10a21.63,21.63,0,0,0,5.18,4.66c10.69,7.09,28.33,8.46,40.36,3.35L141.05,138a8.63,8.63,0,0,1-2,5.28c-1.81,2.14-5.3,4.65-12,6.06a31.52,31.52,0,0,0,13.54-3.75c4.45-2.57,6.67-5.94,6.67-9.3l4.17-48.57h0Z"/><ellipse class="m" cx="124.48" cy="75.73" rx="27.97" ry="16.15"/><ellipse class="m" cx="124.48" cy="70.04" rx="24.09" ry="13.91"/><path class="u" d="M154.11,75h0v0a.28.28,0,0,1,0-.09l-.54-5.42,0,.06c-.24-4.1-3.07-8.17-8.5-11.3-11.35-6.56-29.77-6.56-41.12,0-5.57,3.21-8.4,7.4-8.51,11.61h0l-.51,4.83c0,.12,0,.25,0,.37v.08h0c-.31,4.6,2.58,9.26,8.66,12.77,11.58,6.69,30.36,6.69,41.94,0C151.58,84.3,154.46,79.6,154.11,75Z"/><ellipse class="v" cx="124.48" cy="70.04" rx="24.09" ry="13.91"/><ellipse class="w" cx="123.34" cy="70.04" rx="24.09" ry="13.91"/><path class="m" d="M110.3,62.28c9.41-5.44,24.67-5.44,34.07,0l.34.21a19.21,19.21,0,0,0-3.19-2.29c-9.41-5.43-24.67-5.43-34.07,0s-9.39,14-.34,19.46C101.06,74.27,102.12,67,110.3,62.28Z"/><path class="x" d="M107.45,62.62c9.4-5.43,24.66-5.43,34.07,0,4.17,2.41,6.49,5.48,7,8.63.59-4-1.73-8-7-11-9.41-5.43-24.67-5.43-34.07,0-5.24,3-7.56,7.1-7,11C101,68.1,103.27,65,107.45,62.62Z"/><path class="y" d="M145.22,58.31c-11.34-6.69-29.82-6.85-41.27-.37s-11.55,17.15-.21,23.83,29.82,6.85,41.27.37S156.56,65,145.22,58.31Zm-3.7,21.57a31.74,31.74,0,0,1-11,3.61l-.44-1.44a1.37,1.37,0,0,0-1.31-1h-8.65a1.37,1.37,0,0,0-1.32,1l-.44,1.44a31.42,31.42,0,0,1-11-3.62C98,74.44,98,65.64,107.45,60.2s24.66-5.43,34.07,0S150.93,74.44,141.52,79.88Z"/><path class="h" d="M141.52,59.17c-9.41-5.43-24.67-5.43-34.07,0-4.94,2.85-7.28,6.62-7,10.35.22-3.38,2.56-6.73,7-9.32,9.4-5.43,24.66-5.43,34.07,0,4.47,2.59,6.82,5.94,7,9.32C148.79,65.8,146.45,62,141.52,59.17Z"/><path class="h" d="M145,81.11c-11.45,6.48-29.93,6.31-41.27-.37-5.4-3.18-8.2-7.26-8.43-11.36-.22,4.44,2.58,9,8.43,12.39,11.34,6.68,29.82,6.85,41.27.37,6-3.4,8.89-8,8.64-12.47C153.44,73.85,150.56,78,145,81.11Z"/><rect class="z" x="121.24" y="82.84" width="6.48" height="1.4" rx="0.65" ry="0.65"/><path class="aa" d="M127.07,82.84H121.9a.65.65,0,0,0-.66.65v.09a.47.47,0,0,0,0,.17.64.64,0,0,1,.62-.47h5.17a.62.62,0,0,1,.61.47.47.47,0,0,0,0-.17v-.09A.65.65,0,0,0,127.07,82.84Z"/><path class="h" d="M121.06,128.93l-2.62-.76a.51.51,0,0,1-.35-.64L124,107.32a.52.52,0,0,1,.64-.35l2.62.76a.52.52,0,0,1,.36.64l-5.87,20.21A.52.52,0,0,1,121.06,128.93Zm-4.9-4.82,1.87-2a.51.51,0,0,0,0-.74L114.1,118l3.9-3.43a.51.51,0,0,0,0-.74l-1.87-2a.51.51,0,0,0-.73,0l-6.19,5.8a.51.51,0,0,0,0,.75l6.19,5.81a.51.51,0,0,0,.73,0Zm14.06,0,6.19-5.8a.52.52,0,0,0,0-.76l-6.19-5.81a.52.52,0,0,0-.73,0l-1.87,2a.52.52,0,0,0,0,.74l3.89,3.43-3.89,3.42a.51.51,0,0,0,0,.74l1.87,2a.51.51,0,0,0,.73,0Z"/><path class="ab" d="M126.31,83.54s15.64-5.25,9.31-23.22S117,36.88,121.93,22.5c0,0-7.79,11.64-.51,27.38s8.86,13.94,8.78,21.47a13.59,13.59,0,0,1-7.33,12.19Z"/><path class="ab" d="M127.72,25s-1.63-10.75,8.46-21.58c0,0-8.92,19.91-6,29.75C130.18,33.17,127.82,26.92,127.72,25Z"/></svg>